#!OML:ASF I:\Random Stuff\random\construction\7_22_03\Session 2\subj1.ASF
:FULLY-SPECIFIED
:DEGREES
596
root -1.746 17.744 0.422793 -25.8265 84.7063 -32.3366
lowerback -0.774774 0.19341 1.11874
upperback -3.9301 0.370717 1.14816
thorax -3.60637 0.196626 0.544067
lowerneck -22.1864 -2.09497 0.379067
upperneck 32.0476 -3.9669 3.45509
head 14.9498 -0.903234 0.670496
rclavicle 2.65777e-015 -5.10628e-015
rhumerus 43.0368 11.1141 -70.6535
rradius 105.757
rwrist -47.0757
rhand -29.7152 8.87965
rfingers 7.12502
rthumb -3.04244 -21.0784
lclavicle 2.65777e-015 -5.10628e-015
lhumerus -41.0707 -41.003 111.773
lradius 65.8608
lwrist 50.0152
lhand -21.0059 65.5912
lfingers 7.12502
lthumb 5.36861 -95.5032
rfemur -1.85268 16.1921 20.4609
rtibia 2.98185
rfoot -1.32547 -21.0895
rtoes -17.9239
lfemur -10.3278 -16.4256 -12.8678
ltibia 20.3621
lfoot -15.4614 16.8123
ltoes -28.0956
597
root -1.74565 17.7434 0.423612 -25.8408 84.718 -32.341
lowerback -0.768682 0.204196 1.11155
upperback -3.9075 0.384279 1.15186
thorax -3.58643 0.20352 0.551575
lowerneck -22.2042 -2.08485 0.385703
upperneck 32.0092 -3.94828 3.43508
head 14.9348 -0.899142 0.663787
rclavicle -4.90167e-015 -1.717e-014
rhumerus 43.0467 11.0563 -70.6282
rradius 105.768
rwrist -47.1256
rhand -29.6818 9.02578
rfingers 7.12502
rthumb -3.01015 -20.9327
lclavicle -4.90167e-015 -1.717e-014
lhumerus -41.1238 -41.0047 111.88
lradius 65.8516
lwrist 49.997
lhand -21.0356 65.6055
lfingers 7.12502
lthumb 5.34 -95.5183
rfemur -1.85149 16.1816 20.4636
rtibia 3.01457
rfoot -1.35694 -21.1087
rtoes -17.7546
lfemur -10.3157 -16.3414 -12.875
ltibia 20.3563
lfoot -15.4463 16.7388
ltoes -28.1843
598
root -1.74514 17.7433 0.42409 -25.8388 84.7259 -32.3332
lowerback -0.76165 0.203186 1.10323
upperback -3.89239 0.382229 1.15174
thorax -3.57475 0.202611 0.556141
lowerneck -22.2696 -2.06355 0.41907
upperneck 32.0344 -3.92091 3.40085
head 14.9586 -0.887345 0.648869
rclavicle 1.58997e-014 -5.93869e-015
rhumerus 43.0527 11.0403 -70.6524
rradius 105.763
rwrist -47.1039
rhand -29.7128 8.9553
rfingers 7.12502
rthumb -3.04006 -21.0028
lclavicle 1.58997e-014 -5.93869e-015
lhumerus -41.175 -40.9864 111.95
lradius 65.8391
lwrist 49.996
lhand -21.0897 65.5059
lfingers 7.12502
lthumb 5.28778 -95.4199
rfemur -1.89594 16.1748 20.4662
rtibia 3.12517
rfoot -1.45689 -21.16
rtoes -17.5295
lfemur -10.3086 -16.2603 -12.8808
ltibia 20.338
lfoot -15.4132 16.6651
ltoes -28.4159
599
root -1.74405 17.7439 0.424334 -25.8117 84.7437 -32.3045
lowerback -0.757043 0.193062 1.09573
upperback -3.89124 0.368218 1.14227
thorax -3.5761 0.19561 0.550913
lowerneck -22.2539 -2.04682 0.502031
upperneck 32.0127 -3.8977 3.31403
head 14.9398 -0.881281 0.602627
rclavicle -7.95042e-015 -2.54072e-015
rhumerus 43.0345 11.0451 -70.7126
rradius 105.756
rwrist -47.0531
rhand -29.7073 8.80786
rfingers 7.12502
rthumb -3.03481 -21.1503
lclavicle -7.95042e-015 -2.54072e-015
lhumerus -41.2727 -40.9524 112.016
lradius 65.8366
lwrist 50.0746
lhand -21.0823 65.5787
lfingers 7.12502
lthumb 5.29488 -95.4926
rfemur -1.9644 16.1597 20.4576
rtibia 3.28588
rfoot -1.56751 -21.1705
rtoes -17.4717
lfemur -10.3013 -16.2793 -12.89
ltibia 20.3121
lfoot -15.3803 16.6692
ltoes -28.3681
600
root -1.74391 17.744 0.424352 -25.8576 84.7836 -32.3331
lowerback -0.738263 0.192069 1.09745
upperback -3.87586 0.366007 1.12889
thorax -3.57062 0.193976 0.536178
lowerneck -22.2495 -2.06015 0.555135
upperneck 31.9875 -3.91653 3.25197
head 14.9243 -0.89303 0.563684
rclavicle 5.89133e-015 1.83876e-015
rhumerus 43.0001 10.9993 -70.7518
rradius 105.796
rwrist -47.0219
rhand -29.6023 8.85488
rfingers 7.12502
rthumb -2.93334 -21.1047
lclavicle 5.89133e-015 1.83876e-015
lhumerus -41.3335 -40.954 112.085
lradius 65.822
lwrist 50.1912
lhand -20.9487 65.8624
lfingers 7.12502
lthumb 5.42384 -95.773
rfemur -2.04224 16.1219 20.4447
rtibia 3.48391
rfoot -1.65393 -21.1711
rtoes -17.5391
lfemur -10.2678 -16.3739 -12.9117
ltibia 20.2763
lfoot -15.3674 16.723
ltoes -28.2557
601
root -1.74411 17.7439 0.424629 -25.8343 84.8124 -32.295
lowerback -0.734607 0.198654 1.08278
upperback -3.84915 0.373545 1.13015
thorax -3.54506 0.19802 0.545522
lowerneck -22.3364 -2.08761 0.525937
upperneck 32.0427 -3.95353 3.26224
head 14.9709 -0.908173 0.565927
rclavicle -1.40434e-014 -5.93869e-015
rhumerus 42.9674 10.9506 -70.7544
rradius 105.843
rwrist -47.0148
rhand -29.4537 9.09943
rfingers 7.12502
rthumb -2.78984 -20.8621
lclavicle -1.40434e-014 -5.93869e-015
lhumerus -41.3366 -40.956 112.148
lradius 65.7891
lwrist 50.2485
lhand -20.8981 65.9125
lfingers 7.12502
lthumb 5.47276 -95.8218
rfemur -2.10983 16.097 20.4334
rtibia 3.64371
rfoot -1.69701 -21.176
rtoes -17.7528
lfemur -10.2342 -16.3913 -12.9338
ltibia 20.2415
lfoot -15.353 16.7218
ltoes -28.2926
602
root -1.74304 17.7435 0.425445 -25.5734 84.8081 -32.0351
lowerback -0.776692 0.188918 1.02918
upperback -3.82588 0.358831 1.14851
thorax -3.49748 0.192694 0.594931
lowerneck -22.3739 -2.07605 0.540632
upperneck 32.0545 -3.93305 3.23017
head 14.9829 -0.902132 0.553742
rclavicle 5.98567e-015 5.2181e-015
rhumerus 42.9544 10.9836 -70.7757
rradius 105.867
rwrist -47.0542
rhand -29.3557 9.32409
rfingers 7.12502
rthumb -2.69522 -20.6386
lclavicle 5.98567e-015 5.2181e-015
lhumerus -41.3079 -40.8614 112.146
lradius 65.7553
lwrist 50.2225
lhand -20.9351 65.7615
lfingers 7.12502
lthumb 5.43698 -95.6717
rfemur -2.16266 16.1111 20.4161
rtibia 3.75262
rfoot -1.70773 -21.1763
rtoes -17.9597
lfemur -10.2194 -16.2564 -12.951
ltibia 20.2145
lfoot -15.3619 16.6034
ltoes -28.0929
603
root -1.74143 17.7437 0.425871 -25.4748 84.7949 -31.944
lowerback -0.841119 0.18297 1.00523
upperback -3.80068 0.349182 1.16401
thorax -3.43515 0.188973 0.624749
lowerneck -22.3173 -2.06228 0.641066
upperneck 31.9473 -3.90486 3.10061
head 14.9137 -0.902221 0.486805
rclavicle 2.51742e-015 -1.16538e-014
rhumerus 42.9401 10.992 -70.8159
rradius 105.909
rwrist -47.1282
rhand -29.3281 9.34279
rfingers 7.12502
rthumb -2.66861 -20.6203
lclavicle 2.51742e-015 -1.16538e-014
lhumerus -41.3018 -40.7662 112.118
lradius 65.7423
lwrist 50.1932
lhand -21.0034 65.6034
lfingers 7.12502
lthumb 5.37102 -95.5153
rfemur -2.20193 16.1265 20.4128
rtibia 3.82823
rfoot -1.78707 -21.1975
rtoes -17.5893
lfemur -10.217 -16.0995 -12.9503
ltibia 20.1937
lfoot -15.3613 16.4645
ltoes -27.9267
604
root -1.74058 17.7451 0.426103 -25.571 84.8119 -32.0499
lowerback -0.873012 0.189203 1.01097
upperback -3.79216 0.356861 1.16459
thorax -3.40831 0.192712 0.622088
lowerneck -22.3675 -2.08926 0.606855
upperneck 32.0005 -3.95539 3.16254
head 14.9533 -0.915862 0.509113
rclavicle -1.59183e-015 1.31695e-015
rhumerus 42.8605 10.9346 -70.8567
rradius 105.991
rwrist -47.1615
rhand -29.4063 9.2222
rfingers 7.12502
rthumb -2.74407 -20.7399
lclavicle -1.59183e-015 1.31695e-015
lhumerus -41.3478 -40.7062 112.121
lradius 65.7499
lwrist 50.1536
lhand -20.9834 65.5667
lfingers 7.12502
lthumb 5.39039 -95.4782
rfemur -2.22136 16.1071 20.4136
rtibia 3.85991
rfoot -1.83666 -21.1949
rtoes -17.345
lfemur -10.2238 -16.138 -12.9477
ltibia 20.1806
lfoot -15.3408 16.4824
ltoes -28.0036
605
root -1.74007 17.7458 0.426141 -25.42 84.8502 -31.9071
lowerback -0.885879 0.194859 1.00358
upperback -3.78839 0.363717 1.15646
thorax -3.39714 0.196215 0.617768
lowerneck -22.4123 -2.10664 0.611157
upperneck 32.0193 -3.99788 3.19867
head 14.974 -0.92659 0.515182
rclavicle -5.42387e-015 -4.77083e-015
rhumerus 42.7628 10.8859 -70.8948
rradius 106.062
rwrist -47.1577
rhand -29.5057 9.13517
rfingers 7.12502
rthumb -2.84009 -20.8257
lclavicle -5.42387e-015 -4.77083e-015
lhumerus -41.3644 -40.6701 112.119
lradius 65.7783
lwrist 50.1342
lhand -20.8543 65.7269
lfingers 7.12502
lthumb 5.51499 -95.6351
rfemur -2.23846 16.0779 20.379
rtibia 3.8813
rfoot -1.82689 -21.1862
rtoes -17.5508
lfemur -10.2337 -16.2096 -12.9781
ltibia 20.1697
lfoot -15.3216 16.5225
ltoes -28.033
606
root -1.73915 17.745 0.426156 -25.2965 84.8623 -31.7773
lowerback -0.892979 0.196742 1.01311
upperback -3.77997 0.365953 1.15747
thorax -3.38437 0.19703 0.613458
lowerneck -22.4481 -2.1249 0.540238
upperneck 32.0458 -4.03539 3.3029
head 15.0004 -0.934128 0.563731
rclavicle -1.20894e-014 -2.01269e-015
rhumerus 42.6887 10.8769 -70.9189
rradius 106.086
rwrist -47.1713
rhand -29.5836 9.0513
rfingers 7.12502
rthumb -2.9153 -20.9085
lclavicle -1.20894e-014 -2.01269e-015
lhumerus -41.3736 -40.6346 112.099
lradius 65.8261
lwrist 50.0575
lhand -20.8726 65.655
lfingers 7.12502
lthumb 5.49731 -95.5637
rfemur -2.26641 16.0716 20.3619
rtibia 3.95433
rfoot -1.89549 -21.2205
rtoes -17.5882
lfemur -10.2166 -16.1451 -13.0007
ltibia 20.1505
lfoot -15.3037 16.4629
ltoes -28.1514
607
root -1.73838 17.7443 0.426656 -25.3471 84.8521 -31.8267
lowerback -0.879354 0.189333 1.04061
upperback -3.80081 0.357513 1.15831
thorax -3.41352 0.192117 0.599038
lowerneck -22.473 -2.12363 0.477015
upperneck 32.0981 -4.04279 3.39707
head 15.0351 -0.928497 0.613135
rclavicle 1.99406e-015 -4.47266e-016
rhumerus 42.6086 10.883 -70.9836
rradius 106.077
rwrist -47.2189
rhand -29.5827 8.91746
rfingers 7.12502
rthumb -2.91442 -21.0424
lclavicle 1.99406e-015 -4.47266e-016
lhumerus -41.4491 -40.5355 112.078
lradius 65.8505
lwrist 49.9425
lhand -20.9595 65.3761
lfingers 7.12502
lthumb 5.41348 -95.287
rfemur -2.31062 16.0791 20.3773
rtibia 4.05615
rfoot -1.99096 -21.2592
rtoes -17.5277
lfemur -10.1922 -16.1198 -12.9927
ltibia 20.1273
lfoot -15.3 16.4497
ltoes -28.2778
